HIERARCHY
ROOT pelvis
{
  OFFSET 0 100 0
  CHANNELS 6 Xposition Yposition Zposition Zrotation Xrotation Yrotation
  JOINT pelvis_right_femur
  {
    OFFSET -10.78128 -3.44521 -0.5502486
    CHANNELS 3 Zrotation Xrotation Yrotation
    JOINT right_femur_tibia
    {
      OFFSET -0.8047443 -44.0398 -0.1307829
      CHANNELS 3 Zrotation Xrotation Yrotation
      JOINT right_tibia_foot
      {
        OFFSET 3.006224 -47.83518 -5
        CHANNELS 3 Zrotation Xrotation Yrotation
        End Site
        {
          OFFSET 0 -5 15
        }
      }
    }
  }
  JOINT pelvis_left_femur
  {
    OFFSET 10.78128 -3.44521 -0.5502486
    CHANNELS 3 Zrotation Xrotation Yrotation
    JOINT left_femur_tibia
    {
      OFFSET 0.8047443 -44.0398 -0.1307829
      CHANNELS 3 Zrotation Xrotation Yrotation
      JOINT left_tibia_foot
      {
        OFFSET -4.370144 -48.10324 -4.275266
        CHANNELS 3 Zrotation Xrotation Yrotation
        End Site
        {
          OFFSET 0 -5 15
        }
      }
    }
  }
  JOINT pelvis_spine1
  {
    OFFSET 0 6.468898 -3.129235
    CHANNELS 3 Zrotation Xrotation Yrotation
    JOINT spine1
    {
      OFFSET 0 23.15396 4.99043
      CHANNELS 3 Zrotation Xrotation Yrotation
      JOINT spine2
      {
        OFFSET 0 20.79997 -5.064912
        CHANNELS 3 Zrotation Xrotation Yrotation
        JOINT neck
        {
          OFFSET 0 14.38658 9.616178
          CHANNELS 3 Zrotation Xrotation Yrotation
          End Site
          {
            OFFSET 0 20 0
          }
        }
      }
      JOINT right_manubrium
      {
        OFFSET -5.722621 16.35077 3.967754
        CHANNELS 3 Zrotation Xrotation Yrotation
        JOINT right_clavicle
        {
          OFFSET -13.16364 1.694482 -4.693211
          CHANNELS 3 Zrotation Xrotation Yrotation
          JOINT right_humerus
          {
            OFFSET -28.5034 -0.3100689 -2.792744
            CHANNELS 3 Zrotation Xrotation Yrotation
            JOINT right_radius
            {
              OFFSET -25.15693 0.02248979 -1.271978
              CHANNELS 3 Zrotation Xrotation Yrotation
              End Site
              {
                OFFSET -15 0 0
              }
            }
          }
        }
      }
      JOINT left_manubrium
      {
        OFFSET 5.722621 16.35077 3.967754
        CHANNELS 3 Zrotation Xrotation Yrotation
        JOINT left_clavicle
        {
          OFFSET 13.16364 1.694482 -4.693211
          CHANNELS 3 Zrotation Xrotation Yrotation
          JOINT left_humerus
          {
            OFFSET 29.39168 -1.063119 -2.237045
            CHANNELS 3 Zrotation Xrotation Yrotation
            JOINT left_radius
            {
              OFFSET 24.59957 -0.9528479 0.9047498
              CHANNELS 3 Zrotation Xrotation Yrotation
              End Site
              {
                OFFSET 15 -0 -0
              }
            }
          }
        }
      }
    }
  }
}
MOTION
Frames: 19
Frame Time: 0.0416666666667
0 103.5113 0 2.320187 0.2124818 0.003750578 4.079956 -14.59492 13.34993 -0 34.64389 -0 -1.839487 -17.29355 -4.176948 -8.48399 8.884475 -20.52449 -0 4.918764 -0 20.3643 -10.63785 29.2012 -2.772393 -1.320395 5.611456 2.028783 10.64521 -6.29574 2.004716 22.09926 5.655063 2.518399 -24.17391 9.558158 5.425247 -19.25375 10.74842 87.66357 40.73504 -17.984 -0 0 13.4777 -6.412582 8.189292 3.467839 4.455248 -18.99841 -2.992643 -91.52356 21.54602 21.16988 0 0 -16.27762 13.94979 12.78139 -1.401727
0.5035851 103.501 1.703305 1.820935 1.412767 -0.02482097 5.03108 -18.06348 13.5749 -0 34.51336 -0 -2.215577 -17.24478 -3.977423 -8.373805 9.585778 -20.70076 -0 4.960958 -0 20.58439 -11.44836 29.45949 -2.76943 -1.302268 5.419208 2.299324 10.56835 -6.513221 1.937762 21.89865 5.866838 2.498942 -24.63812 9.792925 5.326112 -19.2897 10.83078 88.01294 41.02302 -18.52422 -0 0 13.01428 -5.792664 8.069634 3.455882 4.548077 -19.1561 -3.06257 -90.69896 21.4283 20.33452 0 0 -18.42762 14.55488 12.00621 -2.021966
0.9001147 103.4008 3.45766 1.460601 1.295229 -0.004473656 5.028289 -19.59404 11.95687 -0 34.00202 -0 -3.206365 -16.62249 -3.598467 -8.058311 10.46775 -21.1655 -0 4.973057 -0 18.09112 -13.15741 28.87103 -2.624041 -1.359697 5.182715 2.488435 10.56147 -6.721897 1.820952 21.72501 6.086229 2.533829 -24.89882 9.861125 5.328699 -19.10776 10.96482 88.13882 40.38781 -19.11753 -0 0 12.44403 -5.891705 8.148974 3.877145 4.684225 -19.3968 -3.130307 -90.25932 21.71513 19.80113 0 0 -19.69847 14.28783 11.48435 -1.631781
1.216105 103.2689 5.376975 0.993214 1.583718 -0.007231327 5.489991 -22.13795 10.86932 -0 32.74229 -0 -3.987305 -15.57606 -3.149314 -7.716795 11.19128 -21.09724 -0 5.275542 -0 16.86602 -14.35763 28.34378 -2.548316 -1.331922 5.057603 2.500577 10.56355 -6.764977 1.753217 21.67985 6.18616 2.586661 -24.81037 9.800974 5.344043 -18.92211 11.03027 88.10704 40.04247 -19.2273 -0 0 12.13663 -6.264254 8.24504 4.236489 4.725309 -19.47263 -3.185148 -89.98394 21.75462 19.48369 0 0 -20.02688 13.95533 11.21874 -1.285729
1.470061 103.0864 7.497738 0.5476137 1.928352 -0.0165725 5.975945 -24.68014 9.976203 -0 31.19399 -0 -4.633847 -14.38439 -2.750656 -7.385758 11.81795 -20.84463 -0 5.688419 -0 15.77367 -15.4892 27.7152 -2.468621 -1.313856 4.981238 2.469995 10.59559 -6.778138 1.704214 21.66741 6.231486 2.633551 -24.66382 9.698313 5.376344 -18.74875 11.07617 88.04586 39.62789 -19.29353 -0 0 11.92219 -6.697778 8.347374 4.557517 4.745807 -19.53161 -3.238058 -89.89475 21.86166 19.35476 0 0 -19.98349 13.51398 11.10395 -0.7993298
1.682344 102.8379 9.896788 0.1298395 2.305594 -0.02573823 6.530948 -27.25124 9.215743 -0 29.09401 -0 -5.161839 -12.8821 -2.322061 -7.07129 12.36581 -20.30413 -0 6.337277 -0 15.09214 -16.36356 27.01229 -2.406643 -1.277797 4.944709 2.392706 10.63429 -6.747709 1.671029 21.6879 6.238609 2.679751 -24.43593 9.563364 5.410553 -18.5905 11.1019 87.9422 39.28669 -19.23248 -0 0 11.80004 -7.187958 8.450412 4.853799 4.739126 -19.54766 -3.28588 -89.86919 21.92657 19.30711 0 0 -19.69934 13.05312 11.0635 -0.3105775
1.866982 102.512 12.63628 -0.2377973 2.638724 -0.02012608 7.060122 -29.59781 8.499888 -0 26.64544 -0 -5.622587 -11.14222 -1.884027 -6.775164 12.87899 -19.57498 -0 7.248465 -0 14.53761 -17.03986 26.17531 -2.351409 -1.244507 4.931429 2.305087 10.67701 -6.706634 1.645347 21.7166 6.228169 2.720496 -24.20277 9.423029 5.443045 -18.45709 11.11953 87.8261 38.96545 -19.13733 -0 0 11.7338 -7.668445 8.545745 5.123128 4.723935 -19.55356 -3.326825 -89.893 21.99696 19.31774 0 0 -19.33686 12.5949 11.06025 0.1794925
2.033828 102.1123 15.77718 -0.5523311 2.864733 0.01628396 7.527962 -31.53221 7.772858 -0 24.03563 -0 -6.0762 -9.203067 -1.428568 -6.488429 13.37435 -18.68539 -0 8.55199 -0 14.04124 -17.41888 25.16352 -2.304481 -1.210788 4.932898 2.212579 10.71778 -6.658017 1.624144 21.74928 6.209179 2.757437 -23.9686 9.283088 5.471 -18.3444 11.13224 87.6995 38.67885 -19.00834 -0 0 11.7082 -8.135039 8.633581 5.374237 4.703046 -19.54985 -3.360875 -89.93229 22.05556 19.35235 0 0 -18.9509 12.15682 11.06942 0.6450473
2.187681 101.6686 19.36472 -0.832204 2.94254 0.09679835 7.924949 -32.89013 7.031616 -0 21.58958 -0 -6.588873 -7.190613 -0.9749583 -6.188277 13.84038 -17.68872 -0 10.40511 -0 13.47829 -17.41416 23.93237 -2.262978 -1.180173 4.942874 2.123567 10.75563 -6.609769 1.604965 21.78011 6.1877 2.79042 -23.74873 9.149339 5.493954 -18.25082 11.14322 87.57107 38.41487 -18.86923 -0 0 11.70844 -8.575277 8.713088 5.608639 4.681275 -19.54436 -3.388754 -89.97794 22.11005 19.39881 0 0 -18.58216 11.74382 11.07954 1.084533
2.330283 101.2412 23.42372 -1.108195 2.836622 0.221571 8.275583 -33.53824 6.306643 -0 19.63159 -0 -7.222362 -5.265571 -0.5439161 -5.844219 14.21095 -16.61607 -0 13.02262 -0 12.79722 -16.8951 22.46248 -2.226214 -1.15195 4.957823 2.039716 10.7898 -6.563438 1.586846 21.8079 6.166287 2.820174 -23.54385 9.02282 5.511996 -18.17265 11.1536 87.44318 38.1723 -18.72498 -0 0 11.72597 -8.989509 8.785202 5.829452 4.659806 -19.53831 -3.41157 -90.0215 22.1583 19.44735 0 0 -18.2435 11.35726 11.08469 1.495517
2.462774 100.9166 27.94964 -1.408674 2.527653 0.3677647 8.617886 -33.38726 5.65824 -0 18.40139 -0 -8.006905 -3.622525 -0.1669882 -5.429397 14.35368 -15.49094 -0 16.6155 -0 12.00285 -15.75647 20.78205 -2.193068 -1.126276 4.975571 1.962198 10.82052 -6.520505 1.569209 21.8318 6.14621 2.847094 -23.35506 8.903893 5.525632 -18.10723 11.16409 87.31834 37.94677 -18.58184 -0 0 11.75462 -9.377883 8.850673 6.038178 4.639607 -19.53336 -3.430381 -90.06033 22.20195 19.49405 0 0 -17.94062 10.99566 11.08268 1.8802
2.588273 100.7904 32.90221 -1.736128 2.004945 0.4843812 8.964122 -32.38008 5.13682 -0 17.94037 -0 -8.923201 -2.442583 0.1212077 -4.93532 14.07271 -14.32882 -0 21.31854 -0 11.17565 -13.96343 18.985 -2.162951 -1.102634 4.994924 1.890749 10.84813 -6.481023 1.551862 21.85199 6.12781 2.871627 -23.1807 8.791973 5.535417 -18.05209 11.1749 87.19729 37.73611 -18.44152 -0 0 11.79068 -9.742948 8.91046 6.236434 4.620792 -19.5297 -3.446092 -90.09298 22.24106 19.53668 0 0 -17.67257 10.65678 11.07304 2.240837
2.712806 100.9409 38.20299 -2.050865 1.266497 0.4997052 9.270216 -30.48853 4.753733 -0 18.03863 -0 -9.896041 -1.839319 0.2904979 -4.380502 13.14155 -13.147 -0 27.07998 -0 10.44331 -11.61124 17.22495 -2.135341 -1.08067 5.015215 1.824891 10.87305 -6.444857 1.534733 21.86878 6.111075 2.894111 -23.01913 8.686329 5.541896 -18.00536 11.1861 87.08036 37.53809 -18.30509 -0 0 11.83179 -10.08722 8.965392 6.425444 4.603334 -19.52739 -3.459412 -90.11931 22.27618 19.57459 0 0 -17.43659 10.33802 11.05614 2.580237
2.843474 101.3997 43.74101 -2.274129 0.3168931 0.3431668 9.441035 -27.71589 4.475781 -0 18.28238 -0 -10.81277 -1.805406 0.3295569 -3.804059 11.36275 -11.9663 -0 33.56488 -0 9.939625 -8.939889 15.68371 -2.109892 -1.059984 5.036104 1.763931 10.89566 -6.411597 1.517831 21.88263 6.095811 2.914834 -22.86844 8.586153 5.545535 -17.96553 11.19766 86.96739 37.35113 -18.17245 -0 0 11.8765 -10.41339 9.01622 6.606345 4.587038 -19.52622 -3.470882 -90.1396 22.30754 19.60769 0 0 -17.22888 10.03692 11.03269 2.900926
2.984714 102.1318 49.38792 -2.318745 -0.8297175 -0.02477375 9.380853 -24.11593 4.256216 -0 18.21094 -0 -11.55765 -2.196893 0.2555514 -3.240447 8.639031 -10.80435 -0 40.11113 -0 9.761961 -6.28561 14.52568 -2.086333 -1.040257 5.057416 1.707207 10.91631 -6.380822 1.501185 21.89399 6.081778 2.934025 -22.72693 8.490707 5.546729 -17.93145 11.20954 86.85808 37.17387 -18.04325 -0 0 11.92395 -10.72385 9.063578 6.780102 4.571694 -19.52591 -3.480911 -90.15433 22.33538 19.63623 0 0 -17.04574 9.751276 11.00347 3.205193
3.136441 103.0348 55.02012 -2.137155 -2.141165 -0.5902923 9.058974 -19.81598 4.076233 -0 17.51794 -0 -12.04334 -2.78096 0.1082413 -2.68455 5.025862 -9.661058 -0 45.77797 -0 9.948773 -3.973686 13.85563 -2.064461 -1.021212 5.079061 1.654119 10.93526 -6.352122 1.484834 21.90326 6.068741 2.951869 -22.5931 8.399344 5.545797 -17.90219 11.22167 86.75204 37.00521 -17.91695 -0 0 11.97354 -11.0207 9.108 6.947562 4.55709 -19.5262 -3.489813 -90.164 22.35989 19.66053 0 0 -16.88379 9.479169 10.96919 3.494984
3.297864 103.9579 60.54147 -1.760633 -3.552366 -1.287276 8.543735 -15.02725 3.960791 -0 16.18987 -0 -12.22151 -3.344297 -0.07262076 -2.068467 0.7415904 -8.505745 -0 49.49775 -0 10.47373 -2.203076 13.68943 -2.044115 -1.002627 5.100978 1.604166 10.95274 -6.325148 1.468813 21.91078 6.056494 2.96851 -22.46568 8.311525 5.543003 -17.87701 11.23402 86.64891 36.84421 -17.79305 -0 0 12.02485 -11.30572 9.149926 7.109436 4.543044 -19.52683 -3.497836 -90.16906 22.38121 19.6809 0 0 -16.7402 9.218993 10.93046 3.771939
3.476063 104.7346 65.9003 -1.302658 -4.953186 -2.025482 7.979598 -10.02988 3.953805 -0 14.50689 -0 -12.07423 -3.813437 -0.2703997 -1.273941 -3.865351 -7.278963 -0 50.31793 -0 11.24474 -0.9863832 13.9421 -2.025158 -0.9843222 5.123112 1.556947 10.96894 -6.299622 1.453151 21.91683 6.044867 2.984062 -22.34366 8.226809 5.538562 -17.8553 11.24655 86.54841 36.69007 -17.67116 -0 0 12.07752 -11.58034 9.189723 7.266319 4.529403 -19.52762 -3.505192 -90.16986 22.39948 19.69757 0 0 -16.61266 8.969411 10.88777 4.037424
3.692884 105.2199 71.09716 -0.9191643 -6.197155 -2.730251 7.521299 -5.133106 4.073341 -0 12.92018 -0 -11.60707 -4.31234 -0.4963268 -0.1916415 -8.36914 -5.920063 -0 47.70123 -0 12.10379 -0.180661 14.43768 -2.007473 -0.9661507 5.145395 1.512154 10.98403 -6.275338 1.437871 21.92164 6.033726 2.998613 -22.2262 8.144844 5.532654 -17.83653 11.25924 86.45034 36.54206 -17.55106 -0 0 12.13118 -11.84573 9.227691 7.418691 4.516048 -19.52841 -3.512069 -90.16668 22.41485 19.7107 0 0 -16.49934 8.729324 10.84149 4.292573
